<svg xmlns="http://www.w3.org/2000/svg" width="1600" height="905" viewBox="0 0 1600 905" role="img" aria-labelledby="title desc">
<title id="title">L0 · Wire translation, average 50 percent</title><desc id="desc">Inferred usefulness from the standing snapshot. gemma4_12b: ruby 85 percent, go 92 percent, python 89 percent, java 100 percent, node 93 percent, rust 86 percent; bonsai2: ruby 0 percent, go 88 percent, python 90 percent, java 0 percent, node 88 percent, rust 92 percent; ornith1.5_9b: ruby not judged, go not judged, python not judged, java not judged, node not judged, rust not judged; k2_horizon_7b: ruby 0 percent, go 85 percent, python 90 percent, java 30 percent, node 92 percent, rust 95 percent; ling3.0_tiny: ruby 2 percent, go 6 percent, python 50 percent, java 45 percent, node 4 percent, rust 78 percent; qwen3.8_9b_distill: ruby 72 percent, go 82 percent, python 22 percent, java 8 percent, node 52 percent, rust 84 percent; nemotron-elastic: ruby 0 percent, go 0 percent, python 0 percent, java 0 percent, node 0 percent, rust 0 percent</desc>
<defs><marker id="arrow" markerWidth="8" markerHeight="8" refX="7" refY="4" orient="auto"><path d="M0 0L8 4L0 8Z" fill="#76ceda"/></marker></defs>
<rect width="1600" height="905" rx="24" fill="#0b1b29"/>
<g font-family="DejaVu Sans, sans-serif"><text x="64" y="63" fill="#76ceda" font-size="24" font-weight="700" text-anchor="start">TASK BATTERY / INFERRED USEFULNESS</text><text x="64" y="132" fill="#f0f7fa" font-size="52" font-weight="700" text-anchor="start">L0 · Wire translation</text><text x="1536" y="122" fill="#76ceda" font-size="70" font-weight="700" text-anchor="end">50%</text><text x="1536" y="168" fill="#a6c1cf" font-size="24" font-weight="400" text-anchor="end">overall average</text><text x="64" y="223" fill="#a6c1cf" font-size="22" font-weight="700" text-anchor="start">MODEL / PROJECT IDENTITY</text><text x="496" y="223" fill="#a6c1cf" font-size="25" font-weight="700" text-anchor="middle">ruby</text><text x="626" y="223" fill="#a6c1cf" font-size="25" font-weight="700" text-anchor="middle">go</text><text x="756" y="223" fill="#a6c1cf" font-size="25" font-weight="700" text-anchor="middle">python</text><text x="886" y="223" fill="#a6c1cf" font-size="25" font-weight="700" text-anchor="middle">java</text><text x="1016" y="223" fill="#a6c1cf" font-size="25" font-weight="700" text-anchor="middle">node</text><text x="1146" y="223" fill="#a6c1cf" font-size="25" font-weight="700" text-anchor="middle">rust</text><text x="1435" y="223" fill="#a6c1cf" font-size="22" font-weight="700" text-anchor="middle">ROW AVG</text><rect x="48" y="247" width="1504" height="65" rx="8" fill="#102332" stroke="#0b1b29"/><text x="70" y="289" fill="#f0f7fa" font-size="27" font-weight="700" text-anchor="start">gemma4_12b</text><rect x="438" y="250" width="116" height="59" rx="10" fill="#403c22" stroke="#403c22"/><text x="496" y="289" fill="#ffe080" font-size="29" font-weight="700" text-anchor="middle">85%</text><rect x="568" y="250" width="116" height="59" rx="10" fill="#163e36" stroke="#163e36"/><text x="626" y="289" fill="#8de0b2" font-size="29" font-weight="700" text-anchor="middle">92%</text><rect x="698" y="250" width="116" height="59" rx="10" fill="#163e36" stroke="#163e36"/><text x="756" y="289" fill="#8de0b2" font-size="29" font-weight="700" text-anchor="middle">89%</text><rect x="828" y="250" width="116" height="59" rx="10" fill="#163e36" stroke="#163e36"/><text x="886" y="289" fill="#8de0b2" font-size="29" font-weight="700" text-anchor="middle">100%</text><rect x="958" y="250" width="116" height="59" rx="10" fill="#163e36" stroke="#163e36"/><text x="1016" y="289" fill="#8de0b2" font-size="29" font-weight="700" text-anchor="middle">93%</text><rect x="1088" y="250" width="116" height="59" rx="10" fill="#403c22" stroke="#403c22"/><text x="1146" y="289" fill="#ffe080" font-size="29" font-weight="700" text-anchor="middle">86%</text><text x="1435" y="289" fill="#f0f7fa" font-size="29" font-weight="700" text-anchor="middle">91%</text><rect x="48" y="320" width="1504" height="65" rx="8" fill="#0b1b29" stroke="#0b1b29"/><text x="70" y="362" fill="#f0f7fa" font-size="27" font-weight="700" text-anchor="start">bonsai2</text><rect x="438" y="323" width="116" height="59" rx="10" fill="#402836" stroke="#402836"/><text x="496" y="362" fill="#ffa3ab" font-size="29" font-weight="700" text-anchor="middle">0%</text><rect x="568" y="323" width="116" height="59" rx="10" fill="#163e36" stroke="#163e36"/><text x="626" y="362" fill="#8de0b2" font-size="29" font-weight="700" text-anchor="middle">88%</text><rect x="698" y="323" width="116" height="59" rx="10" fill="#163e36" stroke="#163e36"/><text x="756" y="362" fill="#8de0b2" font-size="29" font-weight="700" text-anchor="middle">90%</text><rect x="828" y="323" width="116" height="59" rx="10" fill="#402836" stroke="#402836"/><text x="886" y="362" fill="#ffa3ab" font-size="29" font-weight="700" text-anchor="middle">0%</text><rect x="958" y="323" width="116" height="59" rx="10" fill="#163e36" stroke="#163e36"/><text x="1016" y="362" fill="#8de0b2" font-size="29" font-weight="700" text-anchor="middle">88%</text><rect x="1088" y="323" width="116" height="59" rx="10" fill="#163e36" stroke="#163e36"/><text x="1146" y="362" fill="#8de0b2" font-size="29" font-weight="700" text-anchor="middle">92%</text><text x="1435" y="362" fill="#f0f7fa" font-size="29" font-weight="700" text-anchor="middle">60%</text><rect x="48" y="393" width="1504" height="65" rx="8" fill="#102332" stroke="#0b1b29"/><text x="70" y="435" fill="#f0f7fa" font-size="27" font-weight="700" text-anchor="start">ornith1.5_9b</text><rect x="438" y="396" width="116" height="59" rx="10" fill="#122535" stroke="#122535"/><text x="496" y="435" fill="#8ba8b9" font-size="29" font-weight="700" text-anchor="middle">—</text><rect x="568" y="396" width="116" height="59" rx="10" fill="#122535" stroke="#122535"/><text x="626" y="435" fill="#8ba8b9" font-size="29" font-weight="700" text-anchor="middle">—</text><rect x="698" y="396" width="116" height="59" rx="10" fill="#122535" stroke="#122535"/><text x="756" y="435" fill="#8ba8b9" font-size="29" font-weight="700" text-anchor="middle">—</text><rect x="828" y="396" width="116" height="59" rx="10" fill="#122535" stroke="#122535"/><text x="886" y="435" fill="#8ba8b9" font-size="29" font-weight="700" text-anchor="middle">—</text><rect x="958" y="396" width="116" height="59" rx="10" fill="#122535" stroke="#122535"/><text x="1016" y="435" fill="#8ba8b9" font-size="29" font-weight="700" text-anchor="middle">—</text><rect x="1088" y="396" width="116" height="59" rx="10" fill="#122535" stroke="#122535"/><text x="1146" y="435" fill="#8ba8b9" font-size="29" font-weight="700" text-anchor="middle">—</text><text x="1435" y="435" fill="#f0f7fa" font-size="29" font-weight="700" text-anchor="middle">—</text><rect x="48" y="466" width="1504" height="65" rx="8" fill="#0b1b29" stroke="#0b1b29"/><text x="70" y="508" fill="#f0f7fa" font-size="27" font-weight="700" text-anchor="start">k2_horizon_7b</text><rect x="438" y="469" width="116" height="59" rx="10" fill="#402836" stroke="#402836"/><text x="496" y="508" fill="#ffa3ab" font-size="29" font-weight="700" text-anchor="middle">0%</text><rect x="568" y="469" width="116" height="59" rx="10" fill="#403c22" stroke="#403c22"/><text x="626" y="508" fill="#ffe080" font-size="29" font-weight="700" text-anchor="middle">85%</text><rect x="698" y="469" width="116" height="59" rx="10" fill="#163e36" stroke="#163e36"/><text x="756" y="508" fill="#8de0b2" font-size="29" font-weight="700" text-anchor="middle">90%</text><rect x="828" y="469" width="116" height="59" rx="10" fill="#402836" stroke="#402836"/><text x="886" y="508" fill="#ffa3ab" font-size="29" font-weight="700" text-anchor="middle">30%</text><rect x="958" y="469" width="116" height="59" rx="10" fill="#163e36" stroke="#163e36"/><text x="1016" y="508" fill="#8de0b2" font-size="29" font-weight="700" text-anchor="middle">92%</text><rect x="1088" y="469" width="116" height="59" rx="10" fill="#163e36" stroke="#163e36"/><text x="1146" y="508" fill="#8de0b2" font-size="29" font-weight="700" text-anchor="middle">95%</text><text x="1435" y="508" fill="#f0f7fa" font-size="29" font-weight="700" text-anchor="middle">65%</text><rect x="48" y="539" width="1504" height="65" rx="8" fill="#102332" stroke="#0b1b29"/><text x="70" y="581" fill="#f0f7fa" font-size="27" font-weight="700" text-anchor="start">ling3.0_tiny</text><rect x="438" y="542" width="116" height="59" rx="10" fill="#402836" stroke="#402836"/><text x="496" y="581" fill="#ffa3ab" font-size="29" font-weight="700" text-anchor="middle">2%</text><rect x="568" y="542" width="116" height="59" rx="10" fill="#402836" stroke="#402836"/><text x="626" y="581" fill="#ffa3ab" font-size="29" font-weight="700" text-anchor="middle">6%</text><rect x="698" y="542" width="116" height="59" rx="10" fill="#452d22" stroke="#452d22"/><text x="756" y="581" fill="#ffb57f" font-size="29" font-weight="700" text-anchor="middle">50%</text><rect x="828" y="542" width="116" height="59" rx="10" fill="#452d22" stroke="#452d22"/><text x="886" y="581" fill="#ffb57f" font-size="29" font-weight="700" text-anchor="middle">45%</text><rect x="958" y="542" width="116" height="59" rx="10" fill="#402836" stroke="#402836"/><text x="1016" y="581" fill="#ffa3ab" font-size="29" font-weight="700" text-anchor="middle">4%</text><rect x="1088" y="542" width="116" height="59" rx="10" fill="#403c22" stroke="#403c22"/><text x="1146" y="581" fill="#ffe080" font-size="29" font-weight="700" text-anchor="middle">78%</text><text x="1435" y="581" fill="#f0f7fa" font-size="29" font-weight="700" text-anchor="middle">31%</text><rect x="48" y="612" width="1504" height="65" rx="8" fill="#0b1b29" stroke="#0b1b29"/><text x="70" y="654" fill="#f0f7fa" font-size="27" font-weight="700" text-anchor="start">qwen3.8_9b_distill</text><rect x="438" y="615" width="116" height="59" rx="10" fill="#403c22" stroke="#403c22"/><text x="496" y="654" fill="#ffe080" font-size="29" font-weight="700" text-anchor="middle">72%</text><rect x="568" y="615" width="116" height="59" rx="10" fill="#403c22" stroke="#403c22"/><text x="626" y="654" fill="#ffe080" font-size="29" font-weight="700" text-anchor="middle">82%</text><rect x="698" y="615" width="116" height="59" rx="10" fill="#402836" stroke="#402836"/><text x="756" y="654" fill="#ffa3ab" font-size="29" font-weight="700" text-anchor="middle">22%</text><rect x="828" y="615" width="116" height="59" rx="10" fill="#402836" stroke="#402836"/><text x="886" y="654" fill="#ffa3ab" font-size="29" font-weight="700" text-anchor="middle">8%</text><rect x="958" y="615" width="116" height="59" rx="10" fill="#452d22" stroke="#452d22"/><text x="1016" y="654" fill="#ffb57f" font-size="29" font-weight="700" text-anchor="middle">52%</text><rect x="1088" y="615" width="116" height="59" rx="10" fill="#403c22" stroke="#403c22"/><text x="1146" y="654" fill="#ffe080" font-size="29" font-weight="700" text-anchor="middle">84%</text><text x="1435" y="654" fill="#f0f7fa" font-size="29" font-weight="700" text-anchor="middle">53%</text><rect x="48" y="685" width="1504" height="65" rx="8" fill="#102332" stroke="#0b1b29"/><text x="70" y="727" fill="#f0f7fa" font-size="27" font-weight="700" text-anchor="start">nemotron-elastic</text><rect x="438" y="688" width="116" height="59" rx="10" fill="#402836" stroke="#402836"/><text x="496" y="727" fill="#ffa3ab" font-size="29" font-weight="700" text-anchor="middle">0%</text><rect x="568" y="688" width="116" height="59" rx="10" fill="#402836" stroke="#402836"/><text x="626" y="727" fill="#ffa3ab" font-size="29" font-weight="700" text-anchor="middle">0%</text><rect x="698" y="688" width="116" height="59" rx="10" fill="#402836" stroke="#402836"/><text x="756" y="727" fill="#ffa3ab" font-size="29" font-weight="700" text-anchor="middle">0%</text><rect x="828" y="688" width="116" height="59" rx="10" fill="#402836" stroke="#402836"/><text x="886" y="727" fill="#ffa3ab" font-size="29" font-weight="700" text-anchor="middle">0%</text><rect x="958" y="688" width="116" height="59" rx="10" fill="#402836" stroke="#402836"/><text x="1016" y="727" fill="#ffa3ab" font-size="29" font-weight="700" text-anchor="middle">0%</text><rect x="1088" y="688" width="116" height="59" rx="10" fill="#402836" stroke="#402836"/><text x="1146" y="727" fill="#ffa3ab" font-size="29" font-weight="700" text-anchor="middle">0%</text><text x="1435" y="727" fill="#f0f7fa" font-size="29" font-weight="700" text-anchor="middle">0%</text><text x="64" y="792" fill="#76ceda" font-size="27" font-weight="700" text-anchor="start">OVERALL / 50.0%</text><rect x="64" y="827" width="138" height="44" rx="8" fill="#163e36" stroke="#163e36"/><text x="133" y="858" fill="#8de0b2" font-size="24" font-weight="700" text-anchor="middle">≥88</text><rect x="224" y="827" width="138" height="44" rx="8" fill="#403c22" stroke="#403c22"/><text x="293" y="858" fill="#ffe080" font-size="24" font-weight="700" text-anchor="middle">≥63</text><rect x="384" y="827" width="138" height="44" rx="8" fill="#452d22" stroke="#452d22"/><text x="453" y="858" fill="#ffb57f" font-size="24" font-weight="700" text-anchor="middle">≥38</text><rect x="544" y="827" width="138" height="44" rx="8" fill="#402836" stroke="#402836"/><text x="613" y="858" fill="#ffa3ab" font-size="24" font-weight="700" text-anchor="middle">&lt;38</text><text x="760" y="858" fill="#a6c1cf" font-size="24" font-weight="400" text-anchor="start">— = not judged</text></g></svg>